<!-- icon666.com - MILLIONS vector ICONS FREE --><svg id="Capa_1" enable-background="new 0 0 500 500" viewBox="0 0 500 500" xmlns="http://www.w3.org/2000/svg"><g><path d="m252.241 162.935c-25.047 0-43.23 18.559-43.23 44.138 0 25.8 17.966 44.356 43.226 44.356 25.046 0 43.069-18.559 43.069-44.356.004-25.579-17.963-44.138-43.065-44.138z"></path><path d="m250 0c-138.071 0-250 111.929-250 250s111.929 250 250 250 250-111.929 250-250-111.929-250-250-250zm110.534 291.712c0 63.637-41.659 103.058-108.545 103.058-57.466 0-97.692-28.977-107.01-76.966h67.308c4.832 13.534 22.114 20.828 39.058 20.828 23.374 0 42.158-14.854 42.158-38.933v-6.045c-15.805 10-34.139 15.274-52.842 15.2-58.059 0-101.195-43.193-101.195-101.784 0-57.739 43.136-101.843 101.2-101.843 23.415-.089 46.082 8.24 63.87 23.467l8.847-16.991h47.156z"></path></g></svg>